<?xml version="1.0" encoding="UTF-8" standalone="no"?>
<svg
   xmlns:dc="http://purl.org/dc/elements/1.1/"
   xmlns:cc="http://creativecommons.org/ns#"
   xmlns:rdf="http://www.w3.org/1999/02/22-rdf-syntax-ns#"
   xmlns:svg="http://www.w3.org/2000/svg"
   xmlns="http://www.w3.org/2000/svg"
   xmlns:sodipodi="http://sodipodi.sourceforge.net/DTD/sodipodi-0.dtd"
   xmlns:inkscape="http://www.inkscape.org/namespaces/inkscape"
   viewBox="0 0 156 31"
   version="1.1"
   id="svg38"
   sodipodi:docname="logo-initlab.svg"
   width="156"
   height="31"
   inkscape:version="0.92.5 (2060ec1f9f, 2020-04-08)">
  <metadata
     id="metadata44">
    <rdf:RDF>
      <cc:Work
         rdf:about="">
        <dc:format>image/svg+xml</dc:format>
        <dc:type
           rdf:resource="http://purl.org/dc/dcmitype/StillImage" />
        <dc:title>initlab</dc:title>
      </cc:Work>
    </rdf:RDF>
  </metadata>
  <defs
     id="defs42" />
  <sodipodi:namedview
     pagecolor="#ffffff"
     bordercolor="#666666"
     borderopacity="1"
     objecttolerance="10"
     gridtolerance="10"
     guidetolerance="10"
     inkscape:pageopacity="0"
     inkscape:pageshadow="2"
     inkscape:window-width="1848"
     inkscape:window-height="1016"
     id="namedview40"
     showgrid="false"
     inkscape:zoom="2.6312879"
     inkscape:cx="114.48033"
     inkscape:cy="55.395"
     inkscape:window-x="72"
     inkscape:window-y="27"
     inkscape:window-maximized="1"
     inkscape:current-layer="svg38" />
  <title
     id="title2">initlab</title>
  <g
     id="????_2"
     data-name="???? 2"
     transform="matrix(0.27537742,0,0,0.27537742,0,0.53620893)">
    <g
       id="????_1-2"
       data-name="???? 1">
      <g
         id="g34">
        <rect
           y="20.02"
           width="17.690001"
           height="17.690001"
           id="rect4"
           x="0"
           style="fill:#e6b15f" />
        <rect
           x="35.380001"
           y="2.3299999"
           width="17.690001"
           height="17.690001"
           id="rect6"
           style="fill:#da8c2c" />
        <rect
           x="53.07"
           y="20.02"
           width="17.690001"
           height="17.690001"
           id="rect8"
           style="fill:#da8c2c" />
        <rect
           x="35.380001"
           y="37.709999"
           width="17.690001"
           height="17.690001"
           id="rect10"
           style="fill:#da8c2c" />
        <rect
           x="53.07"
           y="55.400002"
           width="17.690001"
           height="17.690001"
           id="rect12"
           style="fill:#da8c2c" />
        <rect
           x="35.380001"
           y="73.089996"
           width="17.690001"
           height="17.690001"
           id="rect14"
           style="fill:#da8c2c" />
        <polygon
           points="70.76,73.08 53.07,73.08 53.07,90.78 70.76,90.78 88.44,90.78 88.44,73.08 88.44,55.4 88.44,37.71 88.44,20.02 70.76,20.02 70.76,37.71 70.76,55.4 "
           id="polygon16"
           style="fill:#e6b15f" />
        <rect
           x="53.07"
           y="90.769997"
           width="17.690001"
           height="17.690001"
           id="rect18"
           style="fill:#da8c2c" />
        <polygon
           points="70.76,2.33 70.76,20.02 88.44,20.02 88.44,37.71 88.44,55.4 88.44,73.08 88.44,90.78 70.76,90.78 70.76,108.46 88.44,108.46 106.13,108.46 123.82,108.46 123.82,90.78 106.13,90.78 106.13,73.08 106.13,55.4 106.13,37.71 106.13,20.02 123.82,20.02 123.82,2.33 106.13,2.33 88.44,2.33 "
           id="polygon20"
           style="fill:#cd3920" />
        <path
           d="m 139.54,36.31 h 14.35 l 1.18,7.47 A 63.7,63.7 0 0 1 166.93,37.41 34.21,34.21 0 0 1 179.82,35 q 10.55,0 16,5.64 5.45,5.64 5.42,18.23 v 49.94 H 183.62 V 62.38 q 0,-7.6 -2.56,-10.47 a 8.89,8.89 0 0 0 -7,-2.85 20.69,20.69 0 0 0 -8.2,1.83 41.06,41.06 0 0 0 -8.78,5.34 v 52.58 h -17.54 z"
           id="path22"
           inkscape:connector-curvature="0"
           style="fill:#ffffff" />
        <path
           d="m 218.92,95.78 h 27.24 V 49.5 H 219.8 V 36.31 h 43.93 v 59.47 h 19.92 v 13 h -64.73 z m 47,-82.9 a 19,19 0 0 1 -0.51,4.83 6.39,6.39 0 0 1 -1.76,3.08 6.78,6.78 0 0 1 -3.37,1.61 28.11,28.11 0 0 1 -5.49,0.44 28.48,28.48 0 0 1 -5.42,-0.44 7.33,7.33 0 0 1 -3.51,-1.61 5.69,5.69 0 0 1 -1.76,-3.08 22.08,22.08 0 0 1 -0.44,-4.83 22.49,22.49 0 0 1 0.44,-4.76 5.32,5.32 0 0 1 1.76,-3.07 9,9 0 0 1 3.51,-1.69 21.45,21.45 0 0 1 5.42,-0.58 21.18,21.18 0 0 1 5.49,0.58 8.27,8.27 0 0 1 3.37,1.69 5.93,5.93 0 0 1 1.76,3.07 19.32,19.32 0 0 1 0.52,4.76 z"
           id="path24"
           inkscape:connector-curvature="0"
           style="fill:#ffffff" />
        <path
           d="M 302.36,36.31 V 13.47 l 17.57,-2.35 v 25.19 h 30.76 V 49.5 h -30.76 v 33 a 26.82,26.82 0 0 0 0.73,6.74 9.17,9.17 0 0 0 2.42,4.39 10.68,10.68 0 0 0 4.61,2.37 27.79,27.79 0 0 0 7.18,0.8 42.85,42.85 0 0 0 9.15,-0.88 q 4,-0.87 6.37,-1.61 l 1.47,12.6 q -3.53,1 -8.86,2.12 a 63.1,63.1 0 0 1 -12.53,1.1 54,54 0 0 1 -12.81,-1.32 21,21 0 0 1 -8.71,-4.17 16.92,16.92 0 0 1 -5,-7.25 30.6,30.6 0 0 1 -1.61,-10.55 V 49.5 H 283.61 V 36.31 Z"
           id="path26"
           inkscape:connector-curvature="0"
           style="fill:#ffffff" />
        <path
           d="m 416,95.48 -0.08,13 -41.74,-0.28 0.64,-95 L 352,13 l 0.09,-13 40.42,0.27 -0.64,95.05 z"
           id="path28"
           inkscape:connector-curvature="0"
           style="fill:#ffffff" />
        <path
           d="m 470.77,59 c 0,-3.52 -1.08,-6.16 -3.31,-7.93 -2.23,-1.77 -5.94,-2.68 -11.12,-2.71 a 85.59,85.59 0 0 0 -11,0.65 q -5.73,0.7 -11.29,1.83 l -1.53,-12.9 a 125.49,125.49 0 0 1 13,-2.25 107.77,107.77 0 0 1 13.77,-0.79 56.79,56.79 0 0 1 13.71,1.44 23,23 0 0 1 9,4.23 15.62,15.62 0 0 1 4.93,7.21 31.37,31.37 0 0 1 1.47,10.41 L 488,109 l -14.65,-0.1 -1,-6.74 a 75.35,75.35 0 0 1 -11.82,5.7 36.47,36.47 0 0 1 -13.28,2.33 q -10,-0.08 -16.29,-5.38 -6.29,-5.3 -6.26,-16.16 a 26.18,26.18 0 0 1 2,-10.24 17.36,17.36 0 0 1 6.42,-7.57 33.67,33.67 0 0 1 11.88,-4.6 85.92,85.92 0 0 1 18,-1.49 l 7.76,0.06 z m -7.44,17.23 a 76,76 0 0 0 -11,0.59 21.12,21.12 0 0 0 -7,2.07 8.5,8.5 0 0 0 -3.69,3.57 11.5,11.5 0 0 0 -1.05,5 c 0,3.42 0.91,5.89 2.8,7.42 1.89,1.53 4.55,2.3 8,2.32 a 24.49,24.49 0 0 0 9.16,-1.66 70.53,70.53 0 0 0 10.07,-5.09 l 0.09,-14.21 z"
           id="path30"
           inkscape:connector-curvature="0"
           style="fill:#ffffff" />
        <path
           d="M 502.6,1 520.18,1.12 520,27.06 c 0,2.64 -0.08,5.18 -0.2,7.62 -0.12,2.44 -0.32,5.22 -0.64,8.34 l 0.15,0.15 a 58.54,58.54 0 0 1 10.07,-5.35 30,30 0 0 1 12,-2.27 29.54,29.54 0 0 1 10.38,1.83 17.89,17.89 0 0 1 7.94,6.06 31,31 0 0 1 5.05,11.31 71.41,71.41 0 0 1 1.72,17.59 56.76,56.76 0 0 1 -2.61,17.92 33.87,33.87 0 0 1 -6.75,12 24.42,24.42 0 0 1 -9.78,6.59 34.52,34.52 0 0 1 -12,2 31.83,31.83 0 0 1 -9.73,-1.45 51.22,51.22 0 0 1 -8.39,-3.65 l -0.91,3.51 -14.35,-0.1 z m 17,91.94 a 36.37,36.37 0 0 0 6.42,3 20.77,20.77 0 0 0 6.54,1.06 18,18 0 0 0 6.09,-1 11.74,11.74 0 0 0 5.15,-3.77 20.56,20.56 0 0 0 3.64,-7.45 45.59,45.59 0 0 0 1.4,-12 64.35,64.35 0 0 0 -0.8,-11.72 19.16,19.16 0 0 0 -2.52,-7 8.89,8.89 0 0 0 -4,-3.47 14.15,14.15 0 0 0 -5.41,-1 17.29,17.29 0 0 0 -7.63,1.78 63.1,63.1 0 0 0 -8.68,5.14 z"
           id="path32"
           inkscape:connector-curvature="0"
           style="fill:#ffffff" />
      </g>
    </g>
  </g>
</svg>
